<?xml version="1.0" encoding="utf-8"?>
<!-- Generator: Adobe Illustrator 25.4.1, SVG Export Plug-In . SVG Version: 6.00 Build 0)  -->
<svg version="1.1" id="Ebene_1" xmlns="http://www.w3.org/2000/svg" xmlns:xlink="http://www.w3.org/1999/xlink" x="0px" y="0px"
	 viewBox="0 0 183.5 92.2" style="enable-background:new 0 0 183.5 92.2;" xml:space="preserve">
<style type="text/css">
	.st0{fill:#F58C1C;}
	.st1{fill:#E25195;}
	.st2{fill:#A10E17;}
	.st3{fill:none;stroke:#000000;stroke-width:2;stroke-linecap:round;stroke-linejoin:round;stroke-miterlimit:10;}
	.st4{fill:#57BBD5;}
	.st5{fill:#FFFFFF;}
	.st6{fill:none;stroke:#000000;stroke-width:2;stroke-miterlimit:10;}
	.st7{fill:#8FBA30;}
	.st8{fill:none;stroke:#000000;stroke-width:1.8;stroke-linecap:round;stroke-miterlimit:10;}
	.st9{fill:none;stroke:#000000;stroke-linecap:round;stroke-linejoin:round;stroke-miterlimit:10;}
</style>
<g>
	<g>
		<path class="st4" d="M60.1,53.4c6.4,0,11.5-5.1,11.5-11.5c0-6.4-5.1-11.5-11.5-11.5c-6.4,0-11.5,5.1-11.5,11.5
			C48.6,48.2,53.8,53.4,60.1,53.4"/>
		<path class="st7" d="M114.6,81c16.3,0,29.5-13.2,29.5-29.5S130.9,22,114.6,22c-16.3,0-29.5,13.2-29.5,29.5S98.4,81,114.6,81"/>
		<path class="st2" d="M0,43.5v12c0,3.1,3.4,5,6,3.4l9.6-6c2.5-1.5,2.5-5.2,0-6.7l-9.6-6C3.4,38.5,0,40.4,0,43.5"/>
		<path class="st9" d="M76.6,29.1c0,1.7-1.4,3.1-3.1,3.1c-1.7,0-3.1-1.4-3.1-3.1c0-1.7,1.4-3.1,3.1-3.1
			C75.2,25.9,76.6,27.3,76.6,29.1z"/>
		<path class="st9" d="M76,33.4h-0.8c-0.5,0.2-1.1,0.3-1.7,0.3s-1.2-0.1-1.7-0.3H71c-1.7,0-3.1,1.4-3.1,3.1v2.6h11.2v-2.6
			C79.1,34.8,77.7,33.4,76,33.4z"/>
		<path class="st9" d="M112.6,29.1c0,1.7-1.4,3.1-3.1,3.1c-1.7,0-3.1-1.4-3.1-3.1c0-1.7,1.4-3.1,3.1-3.1
			C111.2,25.9,112.6,27.3,112.6,29.1z"/>
		<path class="st9" d="M112,33.4h-0.8c-0.5,0.2-1.1,0.3-1.7,0.3s-1.2-0.1-1.7-0.3H107c-1.7,0-3.1,1.4-3.1,3.1v2.6h11.2v-2.6
			C115.1,34.8,113.7,33.4,112,33.4z"/>
		<path class="st9" d="M76.6,52.4c0,1.7-1.4,3.1-3.1,3.1c-1.7,0-3.1-1.4-3.1-3.1c0-1.7,1.4-3.1,3.1-3.1
			C75.2,49.3,76.6,50.7,76.6,52.4z"/>
		<path class="st9" d="M76,56.8h-0.8c-0.5,0.2-1.1,0.3-1.7,0.3s-1.2-0.1-1.7-0.3H71c-1.7,0-3.1,1.4-3.1,3.1v2.6h11.2v-2.6
			C79.1,58.2,77.7,56.8,76,56.8z"/>
		<path class="st9" d="M112.6,52.4c0,1.7-1.4,3.1-3.1,3.1c-1.7,0-3.1-1.4-3.1-3.1c0-1.7,1.4-3.1,3.1-3.1
			C111.2,49.3,112.6,50.7,112.6,52.4z"/>
		<path class="st9" d="M112,56.8h-0.8c-0.5,0.2-1.1,0.3-1.7,0.3s-1.2-0.1-1.7-0.3H107c-1.7,0-3.1,1.4-3.1,3.1v2.6h11.2v-2.6
			C115.1,58.2,113.7,56.8,112,56.8z"/>
		<path class="st3" d="M125.6,68.5H57.9c-2.8,0-5-2.2-5-5V21.3c0-2.8,2.2-5,5-5h67.7c2.8,0,5,2.2,5,5v42.1
			C130.6,66.2,128.3,68.5,125.6,68.5z"/>
	</g>
	<line class="st3" x1="70.4" y1="80.6" x2="113.1" y2="80.6"/>
	<g>
		<path class="st3" d="M122.9,62.6H96.1c-0.6,0-1-0.4-1-1V46.7c0-0.6,0.4-1,1-1h26.8c0.6,0,1,0.4,1,1v14.9
			C123.9,62.1,123.5,62.6,122.9,62.6z M87.4,62.6H60.6c-0.6,0-1-0.4-1-1V46.7c0-0.6,0.4-1,1-1h26.8c0.6,0,1,0.4,1,1v14.9
			C88.4,62.1,88,62.6,87.4,62.6z M122.9,39.2H96.1c-0.6,0-1-0.4-1-1V23.2c0-0.6,0.4-1,1-1h26.8c0.6,0,1,0.4,1,1v14.9
			C123.9,38.7,123.5,39.2,122.9,39.2z M87.4,39.2H60.6c-0.6,0-1-0.4-1-1V23.2c0-0.6,0.4-1,1-1h26.8c0.6,0,1,0.4,1,1v14.9
			C88.4,38.7,88,39.2,87.4,39.2z"/>
	</g>
	<path class="st3" d="M101.3,69.4l0.9,10.9 M82.2,69l-0.9,10.9"/>
</g>
</svg>
