<?xml version="1.0" encoding="utf-8"?>
<!-- Generator: Adobe Illustrator 25.4.1, SVG Export Plug-In . SVG Version: 6.00 Build 0)  -->
<svg version="1.1" id="Ebene_1" xmlns="http://www.w3.org/2000/svg" xmlns:xlink="http://www.w3.org/1999/xlink" x="0px" y="0px"
	 viewBox="0 0 183.5 92.2" style="enable-background:new 0 0 183.5 92.2;" xml:space="preserve">
<style type="text/css">
	.st0{fill:#F58C1C;}
	.st1{fill:#E25195;}
	.st2{fill:#A10E17;}
	.st3{fill:none;stroke:#000000;stroke-width:2;stroke-linecap:round;stroke-linejoin:round;stroke-miterlimit:10;}
	.st4{fill:#57BBD5;}
	.st5{fill:#FFFFFF;}
	.st6{fill:none;stroke:#000000;stroke-width:2;stroke-miterlimit:10;}
	.st7{fill:#8FBA30;}
	.st8{fill:none;stroke:#000000;stroke-width:1.8;stroke-linecap:round;stroke-miterlimit:10;}
	.st9{fill:none;stroke:#000000;stroke-linecap:round;stroke-linejoin:round;stroke-miterlimit:10;}
</style>
<g>
	<path class="st1" d="M57.8,78c15.5,0,28-12.5,28-28s-12.5-28-28-28s-28,12.5-28,28S42.3,78,57.8,78"/>
	<path class="st7" d="M106.2,33.6c6.4,0,11.5-5.1,11.5-11.5s-5.1-11.5-11.5-11.5c-6.4,0-11.5,5.1-11.5,11.5S99.8,33.6,106.2,33.6"/>
	<path class="st2" d="M166,43.5v12c0,3.1,3.4,5,6,3.4l9.6-6c2.5-1.5,2.5-5.2,0-6.7l-9.6-6C169.4,38.5,166,40.4,166,43.5"/>
	<g>
		<path class="st6" d="M100.7,62.6H62.4c-2.8,0-5-2.2-5-5V19.3c0-2.8,2.2-5,5-5h38.2c2.8,0,5,2.2,5,5v38.2
			C105.7,60.3,103.4,62.6,100.7,62.6z"/>
	</g>
	<line class="st3" x1="57.4" y1="25.5" x2="105.7" y2="25.5"/>
	<path class="st3" d="M90.7,54.6h8.6 M77.2,54.6h8.6 M63.8,54.6h8.6 M90.7,48h8.6 M77.2,48h8.6 M63.8,48h8.6 M90.7,41.4h8.6
		 M77.2,41.4h8.6 M63.8,41.4h8.6 M90.7,34.8h8.6 M77.2,34.8h8.6 M63.8,34.8h8.6"/>
	<g>
		<path class="st5" d="M115.5,38.3c-2.5,1.1-6.4,11.4-24.3,19C86.3,59.4,84,65.1,86,70c2.1,4.9,7.8,7.3,12.7,5.2
			c18-7.6,28.1-2.7,30.6-3.7c3.3-1.4,2.8-9.9-1-19C124.5,43.3,118.8,37,115.5,38.3"/>
		<path class="st3" d="M115.5,38.3c-2.5,1.1-6.4,11.4-24.3,19C86.3,59.4,84,65.1,86,70c2.1,4.9,7.8,7.3,12.7,5.2
			c18-7.6,28.1-2.7,30.6-3.7c3.3-1.4,2.8-9.9-1-19C124.5,43.3,118.8,37,115.5,38.3z"/>
		<path class="st8" d="M107.6,72.3l5.8,9.6c0.7,1.2,0.3,2.7-0.9,3.4c-1.2,0.7-2.7,0.3-3.4-0.9l-6.4-10.8"/>
		<path class="st3" d="M119.1,62.1c0.5-0.1,1-0.2,1.5-0.4c3-1.3,4.4-4.7,3.1-7.7c-1.3-3-4.7-4.4-7.7-3.1c-0.5,0.2-0.9,0.5-1.3,0.8"
			/>
		<path class="st3" d="M128.3,52.4c3.8,9.1,4.3,17.7,1,19c-3.3,1.4-9-5-12.8-14.1c-3.8-9.2-4.3-17.7-1-19S124.5,43.3,128.3,52.4z"/>
		<path class="st8" d="M98.5,75.3c-1.6-2.3-3.2-5.2-4.6-8.4c-1.4-3.3-2.3-6.6-2.8-9.5"/>
		<path class="st5" d="M91,57.4c0.5,2.9,1.4,6.1,2.8,9.5c1.4,3.2,3,6.1,4.6,8.4"/>
		<path class="st3" d="M91,57.4c0.5,2.9,1.4,6.1,2.8,9.5c1.4,3.2,3,6.1,4.6,8.4"/>
	</g>
</g>
</svg>
