<?xml version="1.0" encoding="utf-8"?>
<!-- Generator: Adobe Illustrator 25.4.1, SVG Export Plug-In . SVG Version: 6.00 Build 0)  -->
<svg version="1.1" id="Ebene_1" xmlns="http://www.w3.org/2000/svg" xmlns:xlink="http://www.w3.org/1999/xlink" x="0px" y="0px"
	 viewBox="0 0 183.5 92.2" style="enable-background:new 0 0 183.5 92.2;" xml:space="preserve">
<style type="text/css">
	.st0{fill:#F58C1C;}
	.st1{fill:#E25195;}
	.st2{fill:#A10E17;}
	.st3{fill:none;stroke:#000000;stroke-width:2;stroke-linecap:round;stroke-linejoin:round;stroke-miterlimit:10;}
	.st4{fill:#57BBD5;}
	.st5{fill:#FFFFFF;}
	.st6{fill:none;stroke:#000000;stroke-width:2;stroke-miterlimit:10;}
	.st7{fill:#8FBA30;}
	.st8{fill:none;stroke:#000000;stroke-width:1.8;stroke-linecap:round;stroke-miterlimit:10;}
	.st9{fill:none;stroke:#000000;stroke-linecap:round;stroke-linejoin:round;stroke-miterlimit:10;}
</style>
<g>
	<path class="st0" d="M61.9,50c14.3,0,25.9-12.1,25-26.6C86.1,11,76,0.9,63.5,0.1C49-0.8,36.9,10.7,36.9,25
		C36.9,38.8,48.1,50,61.9,50"/>
	<path class="st1" d="M122,69c6.6,0,12-5.4,12-12c0-6.6-5.4-12-12-12c-6.6,0-12,5.4-12,12C110,63.7,115.3,69,122,69"/>
	<path class="st2" d="M0,43.5v12c0,3.1,3.4,5,6,3.4l9.6-6c2.5-1.5,2.5-5.2,0-6.7l-9.6-6C3.4,38.5,0,40.4,0,43.5"/>
	<path class="st2" d="M166,43.5v12c0,3.1,3.4,5,6,3.4l9.6-6c2.5-1.5,2.5-5.2,0-6.7l-9.6-6C169.4,38.5,166,40.4,166,43.5"/>
	<rect x="62.9" y="51.5" class="st3" width="62" height="12.3"/>
	<rect x="70.7" y="27.2" class="st3" width="62" height="12.3"/>
	<rect x="70.7" y="75.7" class="st3" width="62" height="12.3"/>
	<path class="st3" d="M56.1,11.4h18.9 M70.2,5.2l6.2,6.2l-6.2,6.2 M62.1,57.6H50.8V11.4h22.4"/>
</g>
</svg>
