<?xml version="1.0" encoding="utf-8"?>
<!-- Generator: Adobe Illustrator 25.4.1, SVG Export Plug-In . SVG Version: 6.00 Build 0)  -->
<svg version="1.1" id="Ebene_1" xmlns="http://www.w3.org/2000/svg" xmlns:xlink="http://www.w3.org/1999/xlink" x="0px" y="0px"
	 viewBox="0 0 183.5 92.2" style="enable-background:new 0 0 183.5 92.2;" xml:space="preserve">
<style type="text/css">
	.st0{fill:#F58C1C;}
	.st1{fill:#E25195;}
	.st2{fill:#A10E17;}
	.st3{fill:none;stroke:#000000;stroke-width:2;stroke-linecap:round;stroke-linejoin:round;stroke-miterlimit:10;}
	.st4{fill:#57BBD5;}
	.st5{fill:#FFFFFF;}
	.st6{fill:none;stroke:#000000;stroke-width:2;stroke-miterlimit:10;}
	.st7{fill:#8FBA30;}
	.st8{fill:none;stroke:#000000;stroke-width:1.8;stroke-linecap:round;stroke-miterlimit:10;}
	.st9{fill:none;stroke:#000000;stroke-linecap:round;stroke-linejoin:round;stroke-miterlimit:10;}
</style>
<g>
	<path class="st4" d="M57.7,60.8c14.9,0,27-12.1,27-27c0-14.9-12.1-27-27-27c-14.9,0-27,12.1-27,27C30.7,48.7,42.8,60.8,57.7,60.8"
		/>
	<path class="st0" d="M131.2,89.6c10.5,0,19-8.5,19-19c0-10.5-8.5-19-19-19c-10.5,0-19,8.5-19,19C112.2,81.1,120.7,89.6,131.2,89.6"
		/>
	<path class="st3" d="M69.6,38.4c-0.1,1-0.3,2-0.7,2.9c-0.6,1.3-1.4,2.5-2.4,3.4c3.7,0.1,7.3-2.1,8.8-5.7c0.1-0.2,0.1-0.4,0.2-0.6
		l7,0c6.1,0,11-4.9,11-11v-5.1c0-6.1-4.9-11-11-11H65.8c-6.1,0-11,4.9-11,11v5.1c0,6,4.8,10.8,10.7,11L69.6,38.4z"/>
	<path class="st5" d="M107.2,19.2H90.5c-6.1,0-11,4.9-11,11v5.1c0,6.1,4.9,11,11,11h10.5c0.1,0.2,0.1,0.4,0.2,0.6
		c1.5,3.6,5.1,5.8,8.8,5.7c-1-0.9-1.9-2-2.4-3.4c-0.4-1-0.6-1.9-0.7-2.9h0.4c6.1,0,11-4.9,11-11v-5.1
		C118.2,24.2,113.3,19.2,107.2,19.2"/>
	<path class="st3" d="M107.2,19.2H90.5c-6.1,0-11,4.9-11,11v5.1c0,6.1,4.9,11,11,11h10.5c0.1,0.2,0.1,0.4,0.2,0.6
		c1.5,3.6,5.1,5.8,8.8,5.7c-1-0.9-1.9-2-2.4-3.4c-0.4-1-0.6-1.9-0.7-2.9h0.4c6.1,0,11-4.9,11-11v-5.1
		C118.2,24.2,113.3,19.2,107.2,19.2z"/>
	<circle class="st6" cx="65.3" cy="57.3" r="7.5"/>
	<path class="st3" d="M71.4,67.9h-1.9c-1.3,0.5-2.7,0.8-4.1,0.8c-1.5,0-2.8-0.3-4.1-0.8h-1.9c-4.2,0-7.5,3.4-7.5,7.5v6.3h27.1v-6.3
		C78.9,71.2,75.5,67.9,71.4,67.9z"/>
	<circle class="st6" cx="120.5" cy="57.3" r="7.5"/>
	<path class="st6" d="M126.5,67.9h-1.9c-1.3,0.5-2.7,0.8-4.1,0.8c-1.5,0-2.8-0.3-4.1-0.8h-1.9c-4.2,0-7.5,3.4-7.5,7.5v6.3H134v-6.3
		C134,71.2,130.7,67.9,126.5,67.9z"/>
	<path class="st2" d="M166,43.5v12c0,3.1,3.4,5,6,3.4l9.6-6c2.5-1.5,2.5-5.2,0-6.7l-9.6-6C169.4,38.5,166,40.4,166,43.5"/>
	<path class="st2" d="M0,43.5v12c0,3.1,3.4,5,6,3.4l9.6-6c2.5-1.5,2.5-5.2,0-6.7l-9.6-6C3.4,38.5,0,40.4,0,43.5"/>
</g>
</svg>
