<svg xmlns="http://www.w3.org/2000/svg" xmlns:xlink="http://www.w3.org/1999/xlink" width="125" zoomAndPan="magnify" viewBox="0 0 93.75 36.750001" height="49" preserveAspectRatio="xMidYMid meet" version="1.0"><defs><clipPath id="id1"><path d="M 0.332031 0 L 89.960938 0 L 89.960938 36.25 L 0.332031 36.25 Z M 0.332031 0 " clip-rule="nonzero"/></clipPath><clipPath id="id2"><path d="M 6.402344 13.085938 L 18.351562 13.085938 L 18.351562 22.796875 L 6.402344 22.796875 Z M 6.402344 13.085938 " clip-rule="nonzero"/></clipPath><clipPath id="id3"><path d="M 23.730469 11.613281 L 35.683594 11.613281 L 35.683594 22.816406 L 23.730469 22.816406 Z M 23.730469 11.613281 " clip-rule="nonzero"/></clipPath><clipPath id="id4"><path d="M 41.15625 12.253906 L 52.359375 12.253906 L 52.359375 23.457031 L 41.15625 23.457031 Z M 41.15625 12.253906 " clip-rule="nonzero"/></clipPath><clipPath id="id5"><path d="M 58.699219 13.113281 L 70.648438 13.113281 L 70.648438 23.570312 L 58.699219 23.570312 Z M 58.699219 13.113281 " clip-rule="nonzero"/></clipPath><clipPath id="id6"><path d="M 75.539062 13.664062 L 84.503906 13.664062 L 84.503906 22.628906 L 75.539062 22.628906 Z M 75.539062 13.664062 " clip-rule="nonzero"/></clipPath></defs><path fill="rgb(70.199585%, 8.628845%, 11.759949%)" d="M 6.984375 0.933594 L 83.1875 0.933594 C 83.550781 0.933594 83.910156 0.96875 84.265625 1.039062 C 84.621094 1.109375 84.96875 1.214844 85.304688 1.351562 C 85.640625 1.488281 85.960938 1.65625 86.261719 1.855469 C 86.5625 2.058594 86.84375 2.285156 87.101562 2.539062 C 87.355469 2.792969 87.585938 3.070312 87.789062 3.371094 C 87.992188 3.667969 88.160156 3.984375 88.300781 4.316406 C 88.441406 4.648438 88.542969 4.992188 88.617188 5.34375 C 88.6875 5.699219 88.722656 6.054688 88.722656 6.414062 L 88.722656 29.589844 C 88.722656 29.949219 88.6875 30.304688 88.617188 30.660156 C 88.542969 31.011719 88.441406 31.355469 88.300781 31.6875 C 88.160156 32.019531 87.992188 32.335938 87.789062 32.632812 C 87.585938 32.933594 87.355469 33.210938 87.101562 33.464844 C 86.84375 33.71875 86.5625 33.945312 86.261719 34.144531 C 85.960938 34.347656 85.640625 34.515625 85.304688 34.652344 C 84.96875 34.789062 84.621094 34.894531 84.265625 34.964844 C 83.910156 35.035156 83.550781 35.070312 83.1875 35.070312 L 6.984375 35.070312 C 6.621094 35.070312 6.257812 35.035156 5.902344 34.964844 C 5.546875 34.894531 5.199219 34.789062 4.863281 34.652344 C 4.527344 34.515625 4.210938 34.347656 3.90625 34.144531 C 3.605469 33.945312 3.324219 33.71875 3.070312 33.464844 C 2.8125 33.210938 2.582031 32.933594 2.378906 32.632812 C 2.179688 32.335938 2.007812 32.019531 1.867188 31.6875 C 1.730469 31.355469 1.625 31.011719 1.554688 30.660156 C 1.480469 30.304688 1.445312 29.949219 1.445312 29.589844 L 1.445312 6.414062 C 1.445312 6.054688 1.480469 5.699219 1.554688 5.34375 C 1.625 4.992188 1.730469 4.648438 1.867188 4.316406 C 2.007812 3.984375 2.179688 3.667969 2.378906 3.371094 C 2.582031 3.070312 2.8125 2.792969 3.070312 2.539062 C 3.324219 2.285156 3.605469 2.058594 3.90625 1.855469 C 4.210938 1.65625 4.527344 1.488281 4.863281 1.351562 C 5.199219 1.214844 5.546875 1.109375 5.902344 1.039062 C 6.257812 0.96875 6.621094 0.933594 6.984375 0.933594 Z M 6.984375 0.933594 " fill-opacity="1" fill-rule="nonzero"/><g clip-path="url(#id1)"><path fill="rgb(70.199585%, 8.628845%, 11.759949%)" d="M 83.1875 36.175781 L 6.996094 36.175781 C 6.554688 36.175781 6.117188 36.132812 5.6875 36.046875 C 5.257812 35.964844 4.835938 35.835938 4.429688 35.671875 C 4.023438 35.503906 3.640625 35.300781 3.273438 35.058594 C 2.90625 34.816406 2.570312 34.542969 2.257812 34.234375 C 1.949219 33.925781 1.671875 33.589844 1.425781 33.226562 C 1.179688 32.867188 0.976562 32.484375 0.808594 32.082031 C 0.636719 31.679688 0.511719 31.265625 0.425781 30.839844 C 0.339844 30.410156 0.296875 29.980469 0.296875 29.542969 L 0.296875 6.335938 C 0.296875 5.902344 0.339844 5.472656 0.425781 5.042969 C 0.511719 4.617188 0.636719 4.203125 0.808594 3.800781 C 0.976562 3.398438 1.179688 3.015625 1.425781 2.652344 C 1.671875 2.292969 1.949219 1.957031 2.257812 1.648438 C 2.570312 1.339844 2.90625 1.066406 3.273438 0.824219 C 3.640625 0.582031 4.023438 0.378906 4.429688 0.210938 C 4.835938 0.046875 5.257812 -0.0820312 5.6875 -0.164062 C 6.117188 -0.25 6.554688 -0.292969 6.996094 -0.292969 L 83.1875 -0.292969 C 83.625 -0.292969 84.0625 -0.25 84.492188 -0.164062 C 84.921875 -0.0820312 85.34375 0.046875 85.75 0.210938 C 86.15625 0.378906 86.539062 0.582031 86.90625 0.824219 C 87.273438 1.066406 87.609375 1.339844 87.921875 1.648438 C 88.230469 1.957031 88.511719 2.292969 88.753906 2.652344 C 89 3.015625 89.203125 3.398438 89.371094 3.800781 C 89.542969 4.203125 89.667969 4.617188 89.753906 5.042969 C 89.839844 5.472656 89.882812 5.902344 89.882812 6.335938 L 89.882812 29.542969 C 89.882812 29.980469 89.839844 30.410156 89.753906 30.839844 C 89.667969 31.265625 89.542969 31.679688 89.371094 32.082031 C 89.203125 32.484375 89 32.867188 88.753906 33.226562 C 88.511719 33.589844 88.230469 33.925781 87.921875 34.234375 C 87.609375 34.542969 87.273438 34.816406 86.90625 35.058594 C 86.539062 35.300781 86.15625 35.503906 85.75 35.671875 C 85.34375 35.835938 84.921875 35.964844 84.492188 36.046875 C 84.0625 36.132812 83.625 36.175781 83.1875 36.175781 Z M 6.996094 2.039062 C 6.699219 2.039062 6.410156 2.066406 6.125 2.125 C 5.835938 2.179688 5.554688 2.265625 5.285156 2.375 C 5.015625 2.484375 4.757812 2.621094 4.515625 2.785156 C 4.269531 2.945312 4.042969 3.128906 3.835938 3.332031 C 3.628906 3.539062 3.445312 3.761719 3.28125 4.003906 C 3.117188 4.246094 2.980469 4.5 2.871094 4.765625 C 2.757812 5.035156 2.671875 5.3125 2.617188 5.597656 C 2.558594 5.882812 2.53125 6.167969 2.53125 6.460938 L 2.53125 29.667969 C 2.53125 29.957031 2.558594 30.242188 2.617188 30.527344 C 2.671875 30.8125 2.757812 31.089844 2.871094 31.359375 C 2.980469 31.625 3.117188 31.878906 3.28125 32.121094 C 3.445312 32.363281 3.628906 32.585938 3.835938 32.792969 C 4.042969 32.996094 4.269531 33.179688 4.515625 33.339844 C 4.757812 33.503906 5.015625 33.640625 5.285156 33.75 C 5.554688 33.859375 5.835938 33.945312 6.125 34 C 6.410156 34.058594 6.699219 34.085938 6.996094 34.085938 L 83.1875 34.085938 C 83.480469 34.085938 83.769531 34.058594 84.054688 34 C 84.34375 33.945312 84.625 33.859375 84.894531 33.75 C 85.164062 33.640625 85.421875 33.503906 85.667969 33.339844 C 85.910156 33.179688 86.136719 32.996094 86.34375 32.792969 C 86.550781 32.585938 86.734375 32.363281 86.898438 32.121094 C 87.0625 31.878906 87.199219 31.625 87.308594 31.359375 C 87.421875 31.089844 87.507812 30.8125 87.566406 30.527344 C 87.621094 30.242188 87.648438 29.957031 87.648438 29.667969 L 87.648438 6.460938 C 87.648438 6.167969 87.621094 5.882812 87.566406 5.597656 C 87.507812 5.3125 87.421875 5.035156 87.308594 4.765625 C 87.199219 4.5 87.0625 4.246094 86.898438 4.003906 C 86.734375 3.761719 86.550781 3.539062 86.34375 3.332031 C 86.136719 3.128906 85.910156 2.945312 85.667969 2.785156 C 85.421875 2.621094 85.164062 2.484375 84.894531 2.375 C 84.625 2.265625 84.34375 2.179688 84.054688 2.125 C 83.769531 2.066406 83.480469 2.039062 83.1875 2.039062 Z M 6.996094 2.039062 " fill-opacity="1" fill-rule="nonzero"/></g><g clip-path="url(#id2)"><path fill="rgb(100%, 100%, 100%)" d="M 17.121094 15.695312 C 17.125 15.800781 17.125 15.902344 17.125 16.003906 C 17.125 19.160156 14.664062 22.796875 10.164062 22.796875 L 10.164062 22.792969 C 8.832031 22.796875 7.53125 22.425781 6.414062 21.726562 C 6.605469 21.746094 6.800781 21.757812 6.996094 21.757812 C 8.097656 21.761719 9.167969 21.398438 10.035156 20.734375 C 8.988281 20.714844 8.070312 20.050781 7.746094 19.078125 C 8.113281 19.148438 8.492188 19.132812 8.851562 19.035156 C 7.710938 18.8125 6.890625 17.832031 6.890625 16.695312 C 6.890625 16.6875 6.890625 16.675781 6.890625 16.667969 C 7.230469 16.851562 7.609375 16.953125 8 16.964844 C 6.925781 16.265625 6.59375 14.871094 7.242188 13.777344 C 8.484375 15.269531 10.320312 16.175781 12.285156 16.273438 C 12.089844 15.441406 12.359375 14.574219 12.996094 13.992188 C 13.980469 13.085938 15.53125 13.132812 16.457031 14.09375 C 17.003906 13.988281 17.53125 13.792969 18.011719 13.515625 C 17.828125 14.070312 17.445312 14.539062 16.933594 14.835938 C 17.421875 14.78125 17.894531 14.652344 18.339844 14.460938 C 18.011719 14.941406 17.597656 15.359375 17.121094 15.695312 Z M 17.121094 15.695312 " fill-opacity="1" fill-rule="nonzero"/></g><g clip-path="url(#id3)"><path fill="rgb(100%, 100%, 100%)" d="M 35.683594 17.25 C 35.683594 14.136719 33.007812 11.613281 29.707031 11.613281 C 26.40625 11.613281 23.730469 14.136719 23.730469 17.25 C 23.730469 20.0625 25.917969 22.394531 28.773438 22.816406 L 28.773438 18.878906 L 27.253906 18.878906 L 27.253906 17.25 L 28.773438 17.25 L 28.773438 16.007812 C 28.773438 14.59375 29.664062 13.816406 31.03125 13.816406 C 31.683594 13.816406 32.367188 13.925781 32.367188 13.925781 L 32.367188 15.3125 L 31.613281 15.3125 C 30.871094 15.3125 30.640625 15.746094 30.640625 16.191406 L 30.640625 17.25 L 32.296875 17.25 L 32.03125 18.878906 L 30.640625 18.878906 L 30.640625 22.816406 C 33.496094 22.394531 35.683594 20.0625 35.683594 17.25 " fill-opacity="1" fill-rule="nonzero"/></g><g clip-path="url(#id4)"><path fill="rgb(100%, 100%, 100%)" d="M 46.765625 12.253906 C 43.679688 12.253906 41.167969 14.761719 41.167969 17.84375 C 41.167969 18.832031 41.425781 19.792969 41.914062 20.640625 L 41.15625 23.457031 L 44.085938 22.761719 C 44.902344 23.210938 45.824219 23.445312 46.761719 23.445312 C 49.847656 23.445312 52.355469 20.933594 52.359375 17.851562 C 52.359375 16.355469 51.777344 14.949219 50.722656 13.890625 C 49.664062 12.835938 48.261719 12.253906 46.765625 12.253906 Z M 46.761719 13.371094 C 47.960938 13.375 49.085938 13.839844 49.929688 14.683594 C 50.773438 15.53125 51.238281 16.65625 51.238281 17.851562 C 51.238281 20.316406 49.230469 22.324219 46.761719 22.324219 C 46.015625 22.324219 45.277344 22.136719 44.625 21.78125 L 44.246094 21.574219 L 43.828125 21.671875 L 42.726562 21.933594 L 42.996094 20.933594 L 43.117188 20.484375 L 42.886719 20.082031 C 42.496094 19.40625 42.289062 18.632812 42.289062 17.84375 C 42.289062 15.378906 44.296875 13.371094 46.761719 13.371094 Z M 44.785156 15.261719 C 44.691406 15.261719 44.539062 15.296875 44.410156 15.4375 C 44.28125 15.578125 43.921875 15.914062 43.921875 16.605469 C 43.921875 17.292969 44.421875 17.957031 44.492188 18.050781 C 44.5625 18.144531 45.457031 19.597656 46.878906 20.160156 C 48.0625 20.625 48.300781 20.535156 48.558594 20.507812 C 48.8125 20.488281 49.386719 20.171875 49.5 19.84375 C 49.617188 19.519531 49.617188 19.238281 49.582031 19.179688 C 49.550781 19.121094 49.457031 19.085938 49.316406 19.015625 C 49.175781 18.949219 48.488281 18.609375 48.359375 18.5625 C 48.230469 18.515625 48.136719 18.492188 48.046875 18.632812 C 47.953125 18.773438 47.683594 19.085938 47.601562 19.179688 C 47.523438 19.273438 47.441406 19.285156 47.300781 19.214844 C 47.160156 19.144531 46.710938 18.996094 46.175781 18.523438 C 45.761719 18.152344 45.480469 17.695312 45.398438 17.554688 C 45.316406 17.414062 45.390625 17.339844 45.460938 17.269531 C 45.523438 17.207031 45.597656 17.105469 45.667969 17.023438 C 45.738281 16.941406 45.761719 16.882812 45.808594 16.789062 C 45.855469 16.699219 45.832031 16.617188 45.796875 16.546875 C 45.761719 16.476562 45.488281 15.785156 45.367188 15.507812 C 45.261719 15.277344 45.152344 15.269531 45.050781 15.265625 C 44.96875 15.261719 44.875 15.261719 44.785156 15.261719 Z M 44.785156 15.261719 " fill-opacity="1" fill-rule="nonzero"/></g><g clip-path="url(#id5)"><path fill="rgb(100%, 100%, 100%)" d="M 61.578125 19.171875 L 63.0625 22.871094 L 64.996094 20.945312 L 68.308594 23.570312 L 70.640625 13.113281 L 58.710938 18.070312 Z M 67.230469 16.113281 L 63.578125 19.433594 L 63.125 21.144531 L 62.285156 19.050781 Z M 67.230469 16.113281 " fill-opacity="1" fill-rule="nonzero"/></g><g clip-path="url(#id6)"><path fill="rgb(100%, 100%, 100%)" d="M 82.898438 19.410156 C 82.4375 19.410156 82.019531 19.605469 81.730469 19.917969 L 78.746094 18.261719 C 78.746094 18.230469 78.75 18.199219 78.75 18.167969 C 78.75 18.144531 78.746094 18.117188 78.746094 18.09375 L 81.769531 16.414062 C 82.058594 16.703125 82.457031 16.878906 82.898438 16.878906 C 83.785156 16.878906 84.503906 16.160156 84.503906 15.273438 C 84.503906 14.382812 83.785156 13.664062 82.898438 13.664062 C 82.011719 13.664062 81.292969 14.382812 81.292969 15.273438 C 81.292969 15.320312 81.296875 15.367188 81.300781 15.414062 L 78.316406 17.070312 C 78.023438 16.757812 77.609375 16.558594 77.144531 16.558594 C 76.257812 16.558594 75.539062 17.28125 75.539062 18.167969 C 75.539062 19.054688 76.257812 19.777344 77.144531 19.777344 C 77.601562 19.777344 78.011719 19.585938 78.304688 19.277344 L 81.296875 20.941406 C 81.296875 20.964844 81.292969 20.992188 81.292969 21.019531 C 81.292969 21.90625 82.011719 22.625 82.898438 22.625 C 83.785156 22.625 84.503906 21.90625 84.503906 21.019531 C 84.503906 20.128906 83.785156 19.410156 82.898438 19.410156 Z M 82.898438 19.410156 " fill-opacity="1" fill-rule="nonzero"/></g></svg>